<svg width="370" height="60" xmlns="http://www.w3.org/2000/svg" xmlns:xlink="http://www.w3.org/1999/xlink"
     overflow="hidden">
    <defs>
        <clipPath id="clip0">
            <rect x="0" y="0" width="370" height="60"/>
        </clipPath>
    </defs>
    <g clip-path="url(#clip0)">
        <rect x="0" y="0" width="370" height="60" fill="#FFFFFF"/>
        <rect x="7.50005" y="16.5001" width="129" height="41" stroke="#000000" stroke-width="1.33333"
              stroke-miterlimit="8" fill="#E2F0D9"/>
        <text font-family="Calibri,Calibri_MSFontService,sans-serif" font-weight="400" font-size="19"
              transform="translate(32.5068 43)">Cucumber
        </text>
        <rect x="237.5" y="16.5001" width="129" height="41" stroke="#2F528F" stroke-width="1.33333"
              stroke-miterlimit="8" fill="#E2F0D9"/>
        <text font-family="Calibri,Calibri_MSFontService,sans-serif" font-weight="400" font-size="19"
              transform="translate(263.47 43)">Formatter
        </text>
        <path d="M136.5 37.1667 230.775 37.1668 230.775 37.8335 136.5 37.8334ZM229.442 33.5001 237.442 37.5002 229.442 41.5001Z"/>
        <rect x="151" y="21" width="12" height="28" fill="#FFFFFF"/>
        <text font-family="Calibri,Calibri_MSFontService,sans-serif" font-weight="400" font-size="15"
              transform="translate(151.43 40)">m
        </text>
        <rect x="166" y="21" width="11" height="28" fill="#FFFFFF"/>
        <text font-family="Calibri,Calibri_MSFontService,sans-serif" font-weight="400" font-size="15"
              transform="translate(165.621 40)">m
        </text>
        <rect x="180" y="21" width="12" height="28" fill="#FFFFFF"/>
        <text font-family="Calibri,Calibri_MSFontService,sans-serif" font-weight="400" font-size="15"
              transform="translate(179.811 40)">m
        </text>
        <rect x="194" y="21" width="12" height="28" fill="#FFFFFF"/>
        <text font-family="Calibri,Calibri_MSFontService,sans-serif" font-weight="400" font-size="15"
              transform="translate(194.002 40)">m
        </text>
        <rect x="208" y="21" width="12" height="28" fill="#FFFFFF"/>
        <text font-family="Calibri,Calibri_MSFontService,sans-serif" font-weight="400" font-size="15"
              transform="translate(208.194 40)">m
        </text>
        <text font-family="Calibri,Calibri_MSFontService,sans-serif" font-weight="400" font-size="19"
              transform="translate(150.155 20)">messages
        </text>
    </g>
</svg>
